<?xml version="1.0" standalone="no"?>
<!DOCTYPE svg PUBLIC "-//W3C//DTD SVG 20010904//EN"
 "http://www.w3.org/TR/2001/REC-SVG-20010904/DTD/svg10.dtd">
<svg version="1.0" xmlns="http://www.w3.org/2000/svg"
 width="1024.000000pt" height="1024.000000pt" viewBox="0 0 1024.000000 1024.000000"
 preserveAspectRatio="xMidYMid meet">
<metadata>
Created by potrace 1.11, written by Peter Selinger 2001-2013
</metadata>
<g transform="translate(0.000000,1024.000000) scale(0.100000,-0.100000)"
fill="#000000" stroke="none">
<path d="M694 8659 c-108 -14 -150 -43 -389 -274 -290 -279 -300 -295 -298
-472 1 -69 6 -92 30 -145 33 -71 -94 60 1593 -1638 514 -518 936 -945 938
-949 1 -4 -163 -175 -365 -379 -202 -203 -761 -766 -1240 -1249 -480 -483
-884 -894 -898 -913 -69 -94 -81 -259 -27 -374 30 -63 61 -98 283 -311 247
-237 262 -247 406 -262 62 -6 134 8 200 39 39 17 359 333 1639 1612 875 875
1603 1609 1617 1631 67 104 74 256 18 370 -29 58 -174 207 -1617 1649 -872
872 -1598 1595 -1615 1606 -68 49 -176 72 -275 59z"/>
<path d="M4910 2863 c-32 -6 -75 -20 -98 -32 -59 -30 -136 -111 -168 -178
l-29 -58 0 -360 0 -360 29 -59 c49 -99 154 -186 258 -213 36 -9 4977 -10 5028
-1 124 23 239 120 286 243 17 46 19 79 19 395 l0 345 -32 66 c-55 112 -158
194 -268 215 -70 13 -4960 11 -5025 -3z"/>
</g>
</svg>